<svg width="1200" height="1400" viewBox="0 0 1200 1400" fill="none" xmlns="http://www.w3.org/2000/svg">
  <rect width="1200" height="1400" fill="#ECF2E7"/>
  <rect width="1200" height="1400" fill="url(#bg)"/>
  <circle cx="897" cy="299" r="219" fill="url(#glow)" fill-opacity="0.75"/>
  <circle cx="255" cy="1072" r="246" fill="#DCE8D8"/>
  <path d="M102 1132C213 1003 397 944 593 946C792 948 942 1006 1103 1144V1400H102V1132Z" fill="#D6E3D4"/>
  <path d="M138 1164C255 1039 407 997 592 997C801 997 943 1047 1062 1164" stroke="#7FA588" stroke-width="3" stroke-linecap="round" stroke-dasharray="2 14"/>
  <rect x="150" y="262" width="306" height="608" rx="28" fill="#F4F8F2" stroke="#D0DED1" stroke-width="2"/>
  <rect x="185" y="302" width="236" height="458" rx="22" fill="#103326"/>
  <rect x="205" y="324" width="196" height="414" rx="16" fill="url(#screen)"/>
  <path d="M263 404C263 372.52 288.52 347 320 347H387C418.48 347 444 372.52 444 404V491H263V404Z" fill="#E8F3E7"/>
  <path d="M284 404C284 384.67 299.67 369 319 369H388C407.33 369 423 384.67 423 404V473H284V404Z" fill="#9EBCA3"/>
  <path d="M322 319C322 284.206 350.206 256 385 256C419.794 256 448 284.206 448 319V354H322V319Z" fill="#F4F8F2" stroke="#D0DED1" stroke-width="2"/>
  <circle cx="441" cy="320" r="55" fill="#EEF5EB"/>
  <path d="M438.476 292C435.89 298.552 432.082 304.321 427.24 309.055C422.398 313.788 416.544 317.378 410.12 319.56C414.608 321.939 418.542 325.241 421.676 329.256C424.809 333.27 427.07 337.896 428.32 342.84C430.299 337.995 433.3 333.632 437.12 330.048C440.939 326.463 445.482 323.741 450.44 322.064C445.919 320.056 441.889 317.087 438.63 313.357C435.37 309.627 432.959 305.231 431.56 300.48L438.476 292Z" fill="#2C6646"/>
  <rect x="286" y="516" width="101" height="27" rx="13.5" fill="#D3E3D4"/>
  <rect x="232" y="565" width="157" height="18" rx="9" fill="#B6CFB9"/>
  <rect x="232" y="598" width="109" height="18" rx="9" fill="#B6CFB9"/>
  <rect x="232" y="640" width="143" height="52" rx="18" fill="#244C36"/>
  <path d="M311 675L336 650.5L351 664.5" stroke="#F6FBF7" stroke-width="6" stroke-linecap="round" stroke-linejoin="round"/>
  <path d="M624 316C624 278.444 654.444 248 692 248H899C936.556 248 967 278.444 967 316V596C967 633.556 936.556 664 899 664H692C654.444 664 624 633.556 624 596V316Z" fill="#F6FAF4" stroke="#D2DED1" stroke-width="2"/>
  <path d="M660 390C660 345.817 695.817 310 740 310H854C898.183 310 934 345.817 934 390V564C934 608.183 898.183 644 854 644H740C695.817 644 660 608.183 660 564V390Z" fill="url(#panel)"/>
  <path d="M699 395H892" stroke="#D7E6D8" stroke-width="3" stroke-linecap="round"/>
  <path d="M699 432H846" stroke="#C2D8C5" stroke-width="16" stroke-linecap="round"/>
  <path d="M699 474H879" stroke="#9EBCA5" stroke-width="16" stroke-linecap="round"/>
  <path d="M699 516H816" stroke="#70997A" stroke-width="16" stroke-linecap="round"/>
  <path d="M699 564H841" stroke="#D7E6D8" stroke-width="8" stroke-linecap="round"/>
  <circle cx="891" cy="898" r="164" fill="#F6FAF4" stroke="#D1DED2" stroke-width="2"/>
  <circle cx="891" cy="898" r="118" fill="url(#ring)"/>
  <circle cx="891" cy="898" r="72" fill="#F4F8F2"/>
  <path d="M876 868C890.359 868 902 856.359 902 842C902 827.641 890.359 816 876 816C861.641 816 850 827.641 850 842C850 856.359 861.641 868 876 868Z" fill="#E1EFE2"/>
  <path d="M915 934C948.689 934 976 906.689 976 873C976 839.311 948.689 812 915 812C881.311 812 854 839.311 854 873C854 906.689 881.311 934 915 934Z" fill="#224E38" fill-opacity="0.08"/>
  <path d="M862 870C871.362 840.056 896.504 818 926.8 818C965.954 818 997.7 849.746 997.7 888.9C997.7 928.054 965.954 959.8 926.8 959.8C894.939 959.8 867.989 938.786 859 909.74" stroke="#2F6B49" stroke-width="16" stroke-linecap="round"/>
  <circle cx="859" cy="910" r="18" fill="#C4873A"/>
  <path d="M859 892V928" stroke="#FFF8EC" stroke-width="4" stroke-linecap="round"/>
  <path d="M839 910H879" stroke="#FFF8EC" stroke-width="4" stroke-linecap="round"/>
  <rect x="213" y="970" width="716" height="152" rx="28" fill="#F5F8F2" stroke="#D4DFD3" stroke-width="2"/>
  <rect x="249" y="1006" width="158" height="78" rx="22" fill="#EFF4EC"/>
  <rect x="431" y="1006" width="206" height="78" rx="22" fill="#E0EBDD"/>
  <rect x="661" y="1006" width="232" height="78" rx="22" fill="#264F39"/>
  <path d="M293 1045H362" stroke="#9CB99F" stroke-width="14" stroke-linecap="round"/>
  <path d="M473 1045H593" stroke="#8AA894" stroke-width="14" stroke-linecap="round"/>
  <path d="M704 1045H835" stroke="#F4FAF6" stroke-width="14" stroke-linecap="round"/>
  <path d="M745 1012C769.301 975.9 814.197 952 864.68 952" stroke="#C4873A" stroke-width="5" stroke-linecap="round" stroke-dasharray="2 14"/>
  <defs>
    <linearGradient id="bg" x1="600" y1="0" x2="600" y2="1400" gradientUnits="userSpaceOnUse">
      <stop stop-color="#F7FAF4"/>
      <stop offset="1" stop-color="#E6EFE4"/>
    </linearGradient>
    <radialGradient id="glow" cx="0" cy="0" r="1" gradientUnits="userSpaceOnUse" gradientTransform="translate(897 299) rotate(90) scale(219)">
      <stop stop-color="#E1C79C"/>
      <stop offset="1" stop-color="#E1C79C" stop-opacity="0"/>
    </radialGradient>
    <linearGradient id="screen" x1="303" y1="324" x2="303" y2="738" gradientUnits="userSpaceOnUse">
      <stop stop-color="#274432"/>
      <stop offset="1" stop-color="#153122"/>
    </linearGradient>
    <linearGradient id="panel" x1="797" y1="310" x2="797" y2="644" gradientUnits="userSpaceOnUse">
      <stop stop-color="#F0F5EC"/>
      <stop offset="1" stop-color="#DDEADB"/>
    </linearGradient>
    <linearGradient id="ring" x1="891" y1="780" x2="891" y2="1016" gradientUnits="userSpaceOnUse">
      <stop stop-color="#D4E2D4"/>
      <stop offset="1" stop-color="#A7C0AD"/>
    </linearGradient>
  </defs>
</svg>
